<svg width="23" height="20" viewBox="0 0 23 20" fill="none" xmlns="http://www.w3.org/2000/svg">
<path d="M9.47689 19.5629C8.8299 19.5629 8.20941 19.3053 7.75192 18.8467C7.29443 18.3881 7.03741 17.7661 7.03741 17.1175C7.03741 16.469 7.29443 15.847 7.75192 15.3884C8.20941 14.9298 8.8299 14.6722 9.47689 14.6722C10.1239 14.6722 10.7444 14.9298 11.2019 15.3884C11.6593 15.847 11.9164 16.469 11.9164 17.1175C11.9164 17.7661 11.6593 18.3881 11.2019 18.8467C10.7444 19.3053 10.1239 19.5629 9.47689 19.5629ZM18.015 19.5629C17.368 19.5629 16.7476 19.3053 16.2901 18.8467C15.8326 18.3881 15.5756 17.7661 15.5756 17.1175C15.5756 16.469 15.8326 15.847 16.2901 15.3884C16.7476 14.9298 17.368 14.6722 18.015 14.6722C18.662 14.6722 19.2825 14.9298 19.74 15.3884C20.1975 15.847 20.4545 16.469 20.4545 17.1175C20.4545 17.7661 20.1975 18.3881 19.74 18.8467C19.2825 19.3053 18.662 19.5629 18.015 19.5629ZM2.11212 2.35122C1.80763 2.34137 1.51889 2.2132 1.30697 1.99381C1.09505 1.77441 0.976562 1.481 0.976562 1.17561C0.976562 0.870221 1.09505 0.576806 1.30697 0.357411C1.51889 0.138017 1.80763 0.0098448 2.11212 0L3.51604 0C4.61624 0 5.56763 0.765399 5.8067 1.84136L7.33503 8.73973C7.5741 9.81569 8.52549 10.5811 9.62569 10.5811H18.7883L20.5472 3.52622H9.14878C8.84715 3.51242 8.56244 3.3826 8.35386 3.16375C8.14527 2.94491 8.02888 2.65389 8.02888 2.35122C8.02888 2.04855 8.14527 1.75753 8.35386 1.53868C8.56244 1.31984 8.84715 1.19002 9.14878 1.17622H20.5472C20.9038 1.17611 21.2557 1.2575 21.5762 1.4142C21.8966 1.57089 22.1773 1.79876 22.3967 2.0805C22.6161 2.36223 22.7686 2.6904 22.8425 3.04007C22.9164 3.38974 22.9098 3.7517 22.8232 4.09843L21.0644 11.1509C20.9376 11.6597 20.6447 12.1115 20.2323 12.4343C19.8198 12.7571 19.3116 12.9324 18.7883 12.9323H9.62569C8.55817 12.9325 7.52253 12.5676 6.68981 11.898C5.85708 11.2285 5.27708 10.2942 5.04559 9.24959L3.51604 2.35122H2.11212Z" fill="white"/>
</svg>
