<svg width="24" height="23" viewBox="0 0 24 23" fill="none" xmlns="http://www.w3.org/2000/svg">
<path d="M5.41725 1.61021C5.41725 1.32835 5.41725 1.0897 5.41725 0.851738C5.42545 0.366893 5.77018 0.00754378 6.22708 0.0034291C6.68398 -0.00068557 7.04787 0.36415 7.05402 0.861339C7.05402 1.09862 7.05402 1.33658 7.05402 1.59032H16.0655C16.0655 1.36196 16.0655 1.12673 16.0655 0.891513C16.0696 0.369635 16.4075 0 16.8863 0C17.3651 0 17.6982 0.371692 17.7023 0.894942C17.7023 1.11645 17.7023 1.33796 17.7023 1.60335C17.8288 1.60335 17.9437 1.59649 18.0573 1.60335C18.6934 1.64793 19.3473 1.6157 19.9615 1.75765C21.7357 2.16912 23.0182 3.81499 23.0223 5.64602C23.0333 10.0858 23.0333 14.5255 23.0223 18.9652C23.0148 21.1597 21.1899 22.9853 18.9964 22.9907C14.0398 23.0031 9.08294 23.0031 4.12588 22.9907C1.92072 22.9853 0.0999592 21.1549 0.0944873 18.9446C0.0830876 14.5218 0.0830876 10.0995 0.0944873 5.67757C0.0985912 3.45221 1.87284 1.68084 4.13478 1.60884C4.55474 1.59855 4.96924 1.61021 5.41725 1.61021ZM1.73057 8.20809V8.49886C1.73057 11.9204 1.73057 15.3416 1.73057 18.7622C1.73057 20.3032 2.78049 21.3565 4.31672 21.3565C9.14519 21.3565 13.9734 21.3565 18.8014 21.3565C20.3397 21.3565 21.3896 20.3059 21.3903 18.765C21.3903 15.3361 21.3903 11.9072 21.3903 8.47829V8.21015L1.73057 8.20809ZM5.41725 3.25471C4.96787 3.25471 4.55064 3.23893 4.13546 3.25471C2.57735 3.32329 1.44877 4.60844 1.76888 6.52519H21.3896C21.3896 6.22002 21.3985 5.93816 21.3896 5.65699C21.3817 5.28839 21.2906 4.92638 21.1233 4.5981C20.9559 4.26982 20.7165 3.9838 20.4232 3.7615C19.6106 3.11549 18.6599 3.25882 17.7071 3.25608C17.7071 3.50982 17.7071 3.73612 17.7071 3.9686C17.703 4.49117 17.3651 4.86012 16.8918 4.86629C16.4184 4.87246 16.071 4.49185 16.071 3.97478C16.071 3.73955 16.071 3.50433 16.071 3.26431H7.05471C7.05471 3.53176 7.06018 3.78619 7.05471 4.03992C7.0544 4.25646 6.96954 4.46427 6.8183 4.61885C6.66707 4.77343 6.46147 4.86249 6.24555 4.86697C6.13658 4.8668 6.02871 4.84504 5.92815 4.80296C5.82758 4.76088 5.73629 4.6993 5.65952 4.62175C5.58275 4.54421 5.52201 4.45223 5.48079 4.35109C5.43956 4.24995 5.41867 4.14164 5.4193 4.03238C5.41314 3.78413 5.41725 3.53656 5.41725 3.25471Z" fill="white"/>
<path d="M13.7058 19.9906C13.4165 19.8993 13.1169 19.8335 12.8413 19.7108C12.4685 19.5448 12.1197 19.324 11.7469 19.1525C11.6265 19.1045 11.4924 19.1045 11.3721 19.1525C11.0232 19.3116 10.6881 19.5016 10.3461 19.6806C9.65117 20.0475 8.96308 20.0488 8.32219 19.5784C7.69224 19.1162 7.46447 18.4757 7.60469 17.7035C7.67309 17.3249 7.74833 16.9491 7.79005 16.5658C7.8007 16.4285 7.7586 16.2923 7.6724 16.1852C7.39881 15.8827 7.08623 15.6119 6.79964 15.319C6.27023 14.7779 6.08966 14.1367 6.33111 13.4112C6.57256 12.6856 7.08965 12.2762 7.84135 12.161C8.23738 12.1007 8.63272 12.0341 9.03012 11.9861C9.10613 11.9805 9.17888 11.9528 9.23957 11.9066C9.30026 11.8603 9.34629 11.7975 9.37211 11.7255C9.54105 11.3621 9.72093 11.0027 9.90424 10.6461C10.2462 9.97818 10.7975 9.61746 11.5458 9.6106C12.303 9.6058 12.8638 9.96858 13.212 10.6454C13.3871 10.9883 13.5649 11.3312 13.7175 11.681C13.7511 11.7723 13.8111 11.8515 13.8897 11.9086C13.9684 11.9656 14.0623 11.9979 14.1593 12.0012C14.5403 12.0451 14.9199 12.1041 15.2981 12.1644C16.0279 12.2817 16.5334 12.6891 16.7762 13.3865C17.019 14.0839 16.8686 14.7231 16.3658 15.2628C16.0697 15.5817 15.7359 15.8649 15.4404 16.1852C15.3543 16.2921 15.3122 16.428 15.3228 16.5651C15.37 16.9724 15.4527 17.375 15.5218 17.7789C15.7188 18.9084 14.8624 19.9329 13.7058 19.9906ZM9.21001 18.0704C9.21411 18.2658 9.35296 18.3447 9.552 18.2473C9.90288 18.0724 10.2503 17.8914 10.5937 17.6987C11.2455 17.3386 11.8933 17.3448 12.5417 17.6987C12.87 17.8784 13.2004 18.0567 13.5382 18.2185C13.5847 18.2409 13.6353 18.2532 13.6868 18.2546C13.7383 18.256 13.7896 18.2465 13.8371 18.2267C13.8926 18.1931 13.9056 18.045 13.8946 17.9524C13.8399 17.5643 13.7722 17.1768 13.7004 16.7907C13.5718 16.0953 13.7688 15.5097 14.2728 15.0207C14.554 14.7464 14.8399 14.4769 15.1128 14.1978C15.1764 14.1292 15.2496 14.0023 15.227 13.944C15.1993 13.8998 15.1628 13.8619 15.1197 13.8326C15.0766 13.8033 15.0279 13.7834 14.9767 13.774C14.6087 13.7054 14.2373 13.654 13.8652 13.6087C13.1491 13.5216 12.6286 13.1636 12.3112 12.5114C12.1436 12.1686 11.9801 11.8188 11.7982 11.4828C11.7483 11.3895 11.6381 11.2661 11.5588 11.2681C11.4795 11.2702 11.3734 11.3964 11.3228 11.491C11.1347 11.8449 10.9692 12.2111 10.7873 12.5677C10.5137 13.1101 10.0793 13.4592 9.47744 13.5717C9.04242 13.6512 8.60126 13.6978 8.16556 13.7774C8.06843 13.7945 7.933 13.859 7.90633 13.9338C7.87965 14.0085 7.95284 14.1395 8.02056 14.2081C8.31672 14.5153 8.63614 14.8026 8.92957 15.1092C9.37415 15.57 9.54036 16.1234 9.43298 16.755C9.35728 17.1926 9.28296 17.6303 9.21001 18.0683V18.0704Z" fill="white"/>
</svg>
