<svg width="24" height="20" viewBox="0 0 24 20" fill="none" xmlns="http://www.w3.org/2000/svg">
<path d="M4.33596 9.00969L12.1412 16.8338L19.9465 9.00969C20.6365 8.31794 21.0242 7.37973 21.0242 6.40145C21.0242 5.42317 20.6365 4.48496 19.9465 3.79321C19.6048 3.4507 19.1991 3.179 18.7527 2.99363C18.3062 2.80826 17.8277 2.71285 17.3445 2.71285C16.3686 2.71285 15.4326 3.10147 14.7425 3.79321L12.1412 6.40084L9.53986 3.79444C8.84803 3.11198 7.91519 2.7312 6.94455 2.73504C5.97391 2.73889 5.0441 3.12705 4.35767 3.81498C3.67123 4.50291 3.28379 5.43487 3.27972 6.40786C3.27565 7.38084 3.6553 8.31602 4.33596 9.00969ZM11.2741 2.05357L12.1412 2.92278L13.0083 2.05357C13.5768 1.47865 14.2531 1.02196 14.9981 0.709714C15.7432 0.397469 16.5425 0.23582 17.3501 0.234047C18.1576 0.232274 18.9576 0.390413 19.704 0.699384C20.4505 1.00836 21.1287 1.46207 21.6997 2.03449C22.2708 2.60691 22.7234 3.28675 23.0316 4.03499C23.3398 4.78323 23.4976 5.58513 23.4958 6.39465C23.4941 7.20417 23.3328 8.00536 23.0213 8.75224C22.7098 9.49912 22.2542 10.177 21.6807 10.7469L13.0095 19.4402C12.8956 19.5545 12.7604 19.6452 12.6115 19.707C12.4626 19.7689 12.303 19.8008 12.1418 19.8008C11.9806 19.8008 11.821 19.7689 11.6722 19.707C11.5233 19.6452 11.388 19.5545 11.2741 19.4402L2.60173 10.7481C2.0204 10.18 1.55738 9.50191 1.23953 8.75306C0.921678 8.00421 0.755327 7.19955 0.750126 6.38576C0.744924 5.57196 0.900975 4.76523 1.20923 4.01237C1.51748 3.2595 1.97179 2.57548 2.54582 1.99999C3.11984 1.42449 3.80215 0.968985 4.55316 0.659884C5.30417 0.350782 6.10893 0.19424 6.92077 0.199339C7.7326 0.204438 8.53534 0.371077 9.28243 0.689588C10.0295 1.0081 10.7061 1.47214 11.2729 2.0548L11.2741 2.05357Z" fill="white"/>
</svg>
