<svg width="21" height="20" viewBox="0 0 21 20" fill="none" xmlns="http://www.w3.org/2000/svg">
<path d="M7.71751 7.236C8.24623 7.711 8.94654 8 9.71269 8H11.7079C12.4442 8.00102 13.1549 7.72888 13.7031 7.236H7.71751ZM7.71751 7.236C7.16937 7.72888 6.45868 8.00102 5.72233 8L7.71751 7.236ZM6.76992 2V1.95H6.71992H3.72715C3.44927 1.95 3.1828 2.06065 2.98635 2.25758C2.7899 2.4545 2.67956 2.72156 2.67956 3V5C2.67956 5.27844 2.7899 5.5455 2.98635 5.74242C3.1828 5.93935 3.44927 6.05 3.72715 6.05H5.72233C6.00021 6.05 6.26668 5.93935 6.46313 5.74242C6.65958 5.5455 6.76992 5.27844 6.76992 5V2ZM3.73712 7.95H3.68712V8V17.965V18.015H3.73712H5.72233H5.77233V17.965V13C5.77233 12.4828 5.9773 11.9868 6.3421 11.6211C6.7069 11.2554 7.20166 11.05 7.71751 11.05H9.71269C10.2285 11.05 10.7233 11.2554 11.0881 11.6211C11.4529 11.9868 11.6579 12.4828 11.6579 13V17.965V18.015H11.7079H17.7064H17.7564V17.965V8V7.95H17.7064H15.6982C14.9449 7.95 14.2564 7.66587 13.7365 7.19881L13.703 7.16877L13.6696 7.19882C13.1307 7.68344 12.4319 7.951 11.7079 7.95H11.7079H9.71269C8.95934 7.95 8.27082 7.66587 7.75093 7.19881L7.7175 7.16877L7.68408 7.19882C7.14513 7.68344 6.44637 7.951 5.7224 7.95H5.72233H3.73712ZM1.74011 7.17705C1.44445 6.9063 1.20704 6.57765 1.04266 6.21123C0.871842 5.83045 0.783797 5.41759 0.784378 5.00007V5V3C0.784378 2.21757 1.09445 1.46722 1.64634 0.913992C2.19822 0.360773 2.94672 0.05 3.72715 0.05H17.6934C18.4738 0.05 19.2223 0.360773 19.7742 0.913992C20.3261 1.46722 20.6362 2.21757 20.6362 3V5C20.6362 5.86737 20.2635 6.64808 19.668 7.18796L19.6516 7.20284V7.225V17.965C19.6516 18.4822 19.4466 18.9782 19.0818 19.3439C18.717 19.7096 18.2222 19.915 17.7064 19.915H10.0848V19.9141L10.0755 19.9159C9.95587 19.9385 9.83441 19.95 9.71268 19.95H7.71751C7.59579 19.95 7.47433 19.9385 7.35472 19.9159L7.35489 19.915H7.34541H3.73812C3.22227 19.915 2.72752 19.7096 2.36271 19.3439C1.99791 18.9782 1.79294 18.4822 1.79294 17.965V7.245V7.1241L1.74011 7.17705ZM9.76269 13V12.95H9.71269H7.71751H7.66751V13V17.965V18.015H7.71751H9.71269V17.966H9.76269V17.965V17.915V13ZM12.7555 2V1.95H12.7055H8.7151H8.6651V2V5C8.6651 5.27844 8.77544 5.5455 8.97189 5.74242C9.16834 5.93935 9.43481 6.05 9.71269 6.05H11.7079C11.9857 6.05 12.2522 5.93935 12.4487 5.74242C12.6451 5.5455 12.7555 5.27844 12.7555 5V2ZM14.7006 1.95H14.6506V2V5C14.6506 5.27844 14.761 5.5455 14.9574 5.74242C15.1539 5.93935 15.4204 6.05 15.6982 6.05H17.6934C17.9713 6.05 18.2378 5.93935 18.4342 5.74242C18.6307 5.5455 18.741 5.27844 18.741 5V3C18.741 2.72156 18.6307 2.4545 18.4342 2.25758C18.2378 2.06065 17.9713 1.95 17.6934 1.95H14.7006ZM14.7006 11.05H15.6982C15.9495 11.05 16.1905 11.1501 16.3682 11.3282C16.546 11.5064 16.6458 11.748 16.6458 12V15C16.6458 15.252 16.546 15.4936 16.3682 15.6718C16.1905 15.8499 15.9495 15.95 15.6982 15.95H14.7006C14.4494 15.95 14.2084 15.8499 14.0306 15.6718C13.8529 15.4936 13.7531 15.252 13.7531 15V12C13.7531 11.748 13.8529 11.5064 14.0306 11.3282C14.2084 11.1501 14.4494 11.05 14.7006 11.05Z" fill="white" stroke="white" stroke-width="0.1"/>
</svg>
