<svg width="18" height="21" viewBox="0 0 18 21" fill="none" xmlns="http://www.w3.org/2000/svg">
<path d="M4.70282 10.5735C4.85175 10.5184 5.01191 10.4898 5.17383 10.4893C5.33575 10.4888 5.49615 10.5164 5.64553 10.5705C5.79492 10.6247 5.93027 10.7042 6.04358 10.8045C6.15688 10.9048 6.24585 11.0237 6.30522 11.1543C6.36458 11.2849 6.39315 11.4244 6.38922 11.5647C6.38529 11.7051 6.34894 11.8433 6.28234 11.9712C6.21573 12.0991 6.12021 12.2142 6.00142 12.3096C5.88263 12.4049 5.74299 12.4787 5.59075 12.5265C4.781 12.803 4.08603 13.2844 3.59625 13.9081C3.10647 14.5317 2.84456 15.2686 2.84459 16.023V17.85C2.84459 18.1285 2.97222 18.3955 3.19939 18.5925C3.42657 18.7894 3.73468 18.9 4.05595 18.9H13.7468C14.0681 18.9 14.3762 18.7894 14.6034 18.5925C14.8306 18.3955 14.9582 18.1285 14.9582 17.85V16.1206C14.9583 15.342 14.6855 14.5818 14.1758 13.9407C13.6661 13.2995 12.9437 12.8078 12.1042 12.5307C11.951 12.4846 11.8101 12.4124 11.6897 12.3182C11.5693 12.224 11.472 12.1098 11.4035 11.9825C11.335 11.8551 11.2966 11.7171 11.2908 11.5766C11.2849 11.4361 11.3117 11.2961 11.3694 11.1648C11.4272 11.0334 11.5148 10.9135 11.627 10.812C11.7392 10.7106 11.8738 10.6297 12.0228 10.5742C12.1717 10.5186 12.332 10.4896 12.4942 10.4887C12.6563 10.4879 12.817 10.5153 12.9667 10.5693C14.2648 10.9979 15.382 11.7582 16.1703 12.7496C16.9586 13.741 17.3808 14.9166 17.3809 16.1206V17.85C17.3809 18.6854 16.998 19.4866 16.3165 20.0774C15.635 20.6681 14.7107 21 13.7468 21H4.05595C3.09214 21 2.16779 20.6681 1.48627 20.0774C0.80475 19.4866 0.421875 18.6854 0.421875 17.85L0.421875 16.023C0.422042 14.8472 0.830438 13.6986 1.59394 12.7267C2.35744 11.7548 3.44071 11.0045 4.70282 10.5735ZM8.90139 0C10.1865 0 11.4189 0.442499 12.3276 1.23015C13.2363 2.0178 13.7468 3.08609 13.7468 4.2V6.3C13.7468 7.41391 13.2363 8.4822 12.3276 9.26985C11.4189 10.0575 10.1865 10.5 8.90139 10.5C7.6163 10.5 6.38385 10.0575 5.47515 9.26985C4.56645 8.4822 4.05595 7.41391 4.05595 6.3V4.2C4.05595 3.08609 4.56645 2.0178 5.47515 1.23015C6.38385 0.442499 7.6163 0 8.90139 0ZM8.90139 2.1C8.25885 2.1 7.64262 2.32125 7.18827 2.71508C6.73392 3.1089 6.47867 3.64305 6.47867 4.2V6.3C6.47867 6.85695 6.73392 7.3911 7.18827 7.78492C7.64262 8.17875 8.25885 8.4 8.90139 8.4C9.54394 8.4 10.1602 8.17875 10.6145 7.78492C11.0689 7.3911 11.3241 6.85695 11.3241 6.3V4.2C11.3241 3.64305 11.0689 3.1089 10.6145 2.71508C10.1602 2.32125 9.54394 2.1 8.90139 2.1Z" fill="white"/>
</svg>
