<svg width="19" height="19" viewBox="0 0 19 19" fill="none" xmlns="http://www.w3.org/2000/svg">
<path d="M7.97341 14.0005C8.75945 14.0005 9.53778 13.8453 10.264 13.5438C10.9902 13.2423 11.65 12.8003 12.2058 12.2431C12.7616 11.686 13.2025 11.0246 13.5033 10.2966C13.8041 9.56865 13.959 8.78843 13.959 8.0005C13.959 7.21257 13.8041 6.43236 13.5033 5.7044C13.2025 4.97645 12.7616 4.31501 12.2058 3.75786C11.65 3.20071 10.9902 2.75875 10.264 2.45723C9.53778 2.1557 8.75945 2.0005 7.97341 2.0005C6.38595 2.0005 4.8635 2.63264 3.74099 3.75786C2.61849 4.88308 1.98787 6.4092 1.98787 8.0005C1.98787 9.5918 2.61849 11.1179 3.74099 12.2431C4.8635 13.3684 6.38595 14.0005 7.97341 14.0005ZM14.2782 12.9065L17.8496 16.4865C17.9448 16.5788 18.0207 16.6892 18.0729 16.8113C18.1251 16.9333 18.1525 17.0645 18.1536 17.1973C18.1546 17.3301 18.1293 17.4618 18.079 17.5846C18.0288 17.7075 17.9546 17.8191 17.8609 17.9129C17.7672 18.0067 17.6557 18.0809 17.5331 18.1311C17.4105 18.1813 17.2791 18.2065 17.1466 18.2052C17.0142 18.204 16.8833 18.1763 16.7616 18.1238C16.6399 18.0713 16.5299 17.9951 16.438 17.8995L12.8666 14.3195C11.2629 15.5674 9.24513 16.1557 7.22398 15.9647C5.20282 15.7737 3.33023 14.8178 1.98742 13.2916C0.644611 11.7653 -0.0674804 9.78345 -0.00389295 7.74943C0.0596945 5.7154 0.894181 3.78213 2.32969 2.34315C3.7652 0.904173 5.69382 0.0676701 7.72294 0.00392902C9.75206 -0.0598121 11.7291 0.654 13.2517 2.00005C14.7743 3.34611 15.7279 5.22322 15.9184 7.24926C16.1089 9.2753 15.522 11.298 14.2772 12.9055L14.2782 12.9065Z" fill="white"/>
</svg>
