<svg width="20" height="22" viewBox="0 0 20 22" fill="none" xmlns="http://www.w3.org/2000/svg">
<path d="M15.0548 0C15.4408 0.147134 15.6935 0.437866 15.9248 0.766089C17.0814 2.39447 18.2451 4.01813 19.4159 5.63708C19.6131 5.90485 19.717 6.22953 19.7118 6.56163C19.7076 13.3786 19.7083 13.9239 19.7083 20.7423C19.7083 21.565 19.2712 22 18.4452 22H2.02465C1.19798 22 0.762293 21.565 0.762293 20.7416C0.762293 13.9338 0.762297 11.6631 0.75804 6.59063C0.752116 6.24026 0.862082 5.8977 1.07096 5.61586C2.23516 4.00446 3.39415 2.38857 4.54794 0.768211C4.78069 0.439281 5.03046 0.147842 5.41648 0.00141506L15.0548 0ZM17.4809 19.7795C17.4866 19.7145 17.4915 19.6791 17.4915 19.643C17.4915 13.3127 17.4916 13.2548 17.4873 6.92522C17.4818 6.80841 17.4427 6.69567 17.3745 6.60053C16.3761 5.19851 15.3692 3.59796 14.3715 2.19453C14.3313 2.1297 14.2739 2.07721 14.2056 2.04288C14.1374 2.00855 14.0609 1.99371 13.9848 2C11.4827 2.00613 8.98098 2.00613 6.47945 2C6.40315 1.99473 6.32688 2.01065 6.25912 2.04599C6.19135 2.08133 6.13473 2.13471 6.09556 2.20019C5.10852 3.58735 4.10871 5.17234 3.12735 6.56233C3.03742 6.696 2.98814 6.85272 2.98543 7.01364C2.97833 13.2605 2.97905 13.2356 2.97905 19.4832V19.7661H5.24973V12.8833C5.24973 12.0599 5.68542 11.627 6.51422 11.627H13.9358C14.7987 11.627 15.2216 12.0515 15.2216 12.9173V19.7788L17.4809 19.7795ZM7.47571 19.7703H12.9821V13.8503H7.47571V19.7703Z" fill="white"/>
</svg>
