<svg width="21" height="21" viewBox="0 0 21 21" fill="none" xmlns="http://www.w3.org/2000/svg">
<path d="M10.5078 0.927734C8.53 0.927734 6.59661 1.51422 4.95211 2.61304C3.30762 3.71185 2.0259 5.27364 1.26902 7.1009C0.512145 8.92816 0.314112 10.9388 0.699964 12.8786C1.08582 14.8184 2.03822 16.6003 3.43675 17.9988C4.83527 19.3973 6.6171 20.3497 8.55691 20.7356C10.4967 21.1214 12.5074 20.9234 14.3347 20.1665C16.1619 19.4097 17.7237 18.1279 18.8225 16.4834C19.9213 14.8389 20.5078 12.9055 20.5078 10.9277C20.5078 9.61452 20.2492 8.31416 19.7466 7.1009C19.2441 5.88764 18.5075 4.78525 17.5789 3.85667C16.6503 2.92808 15.5479 2.19149 14.3347 1.68894C13.1214 1.18639 11.821 0.927734 10.5078 0.927734ZM10.5078 18.9277C8.92557 18.9277 7.37885 18.4585 6.06325 17.5795C4.74766 16.7004 3.72228 15.451 3.11678 13.9892C2.51128 12.5274 2.35285 10.9189 2.66154 9.36701C2.97022 7.81516 3.73214 6.3897 4.85096 5.27088C5.96978 4.15206 7.39525 3.39013 8.94709 3.08145C10.4989 2.77277 12.1075 2.9312 13.5693 3.5367C15.0311 4.1422 16.2805 5.16758 17.1596 6.48317C18.0386 7.79877 18.5078 9.34548 18.5078 10.9277C18.5078 13.0495 17.665 15.0843 16.1647 16.5846C14.6644 18.0849 12.6295 18.9277 10.5078 18.9277Z" fill="white"/>
<path d="M10.5078 15.9277C11.0601 15.9277 11.5078 15.48 11.5078 14.9277C11.5078 14.3754 11.0601 13.9277 10.5078 13.9277C9.95553 13.9277 9.50781 14.3754 9.50781 14.9277C9.50781 15.48 9.95553 15.9277 10.5078 15.9277Z" fill="white"/>
<path d="M10.5078 5.92773C10.2426 5.92773 9.98824 6.03309 9.80071 6.22063C9.61317 6.40816 9.50781 6.66252 9.50781 6.92773V11.9277C9.50781 12.193 9.61317 12.4473 9.80071 12.6348C9.98824 12.8224 10.2426 12.9277 10.5078 12.9277C10.773 12.9277 11.0274 12.8224 11.2149 12.6348C11.4025 12.4473 11.5078 12.193 11.5078 11.9277V6.92773C11.5078 6.66252 11.4025 6.40816 11.2149 6.22063C11.0274 6.03309 10.773 5.92773 10.5078 5.92773Z" fill="white"/>
</svg>
