<svg width="21" height="16" viewBox="0 0 21 16" fill="none" xmlns="http://www.w3.org/2000/svg">
<path d="M2.50781 2.42989H2.40781V2.52989V13.2555V13.3555H2.50781H18.5078H18.6078V13.2555V2.52989V2.42989H18.5078H2.50781ZM2.50781 0.484766H18.5078C19.0094 0.484766 19.4919 0.698403 19.8489 1.08125C20.206 1.46434 20.4078 1.98532 20.4078 2.52989V13.2555C20.4078 13.8001 20.206 14.3211 19.8489 14.7041C19.4919 15.087 19.0094 15.3006 18.5078 15.3006H2.50781C2.00625 15.3006 1.52369 15.087 1.16674 14.7041C0.809573 14.3211 0.607813 13.8001 0.607813 13.2555V2.52989C0.607813 1.98532 0.809573 1.46434 1.16674 1.08125C1.52369 0.698404 2.00625 0.484766 2.50781 0.484766ZM11.5078 4.77501H16.5078C16.7442 4.77501 16.9724 4.87565 17.1418 5.05735C17.3114 5.23929 17.4078 5.48746 17.4078 5.74757C17.4078 6.00769 17.3114 6.25586 17.1418 6.4378C16.9724 6.6195 16.7442 6.72014 16.5078 6.72014H11.5078C11.2715 6.72014 11.0433 6.6195 10.8738 6.4378C10.7042 6.25586 10.6078 6.00769 10.6078 5.74757C10.6078 5.48746 10.7042 5.23929 10.8738 5.05735C11.0433 4.87565 11.2715 4.77501 11.5078 4.77501ZM11.5078 7.9927H16.5078C16.7442 7.9927 16.9724 8.09333 17.1418 8.27504C17.3114 8.45698 17.4078 8.70515 17.4078 8.96526C17.4078 9.22537 17.3114 9.47354 17.1418 9.65548C16.9724 9.83718 16.7442 9.93782 16.5078 9.93782H11.5078C11.2715 9.93782 11.0433 9.83718 10.8738 9.65548C10.7042 9.47354 10.6078 9.22537 10.6078 8.96526C10.6078 8.70515 10.7042 8.45697 10.8738 8.27504C11.0433 8.09333 11.2715 7.9927 11.5078 7.9927Z" fill="white" stroke="white" stroke-width="0.2"/>
<g clip-path="url(#clip0_1043_5409)">
<path d="M7.25774 5.58048V6.14319C7.25774 6.4476 7.12015 6.73356 6.88167 6.93651C6.63401 7.14867 6.31298 7.26859 5.9736 7.26859C5.63422 7.26859 5.30401 7.14867 5.06552 6.93651C4.82704 6.73356 4.68945 6.4476 4.68945 6.14319V5.58048C4.68945 5.2853 4.82704 4.99933 5.06552 4.78717C5.30401 4.575 5.63422 4.45508 5.9736 4.45508C6.31298 4.45508 6.63401 4.575 6.88167 4.78717C7.12015 4.99933 7.25774 5.2853 7.25774 5.58048Z" fill="white"/>
<path d="M8.22106 8.90151V9.36274C8.22106 9.58414 8.11099 9.80553 7.93672 9.96235C7.75327 10.1192 7.50561 10.2114 7.25795 10.2114H4.68967C4.43284 10.2114 4.18518 10.1192 4.01091 9.96235C3.82746 9.80553 3.72656 9.58414 3.72656 9.36274V8.87384C3.72656 8.5602 3.83663 8.24656 4.03843 7.98827C4.24022 7.72998 4.52457 7.52704 4.85477 7.40712C4.90064 7.3979 4.93733 7.38867 4.98319 7.38867C5.02905 7.38867 5.06574 7.3979 5.1116 7.40712H6.75347C6.77182 7.40712 6.78099 7.40712 6.79016 7.41635C6.79016 7.40712 6.79933 7.40712 6.79933 7.40712C6.94609 7.3979 7.03782 7.40712 7.04699 7.40712C7.39554 7.52704 7.68906 7.72998 7.90003 7.9975C8.10182 8.26501 8.22106 8.57865 8.22106 8.90151Z" fill="white"/>
</g>
<defs>
<clipPath id="clip0_1043_5409">
<rect width="6" height="7.68429" fill="white" transform="translate(3.50781 4.45508)"/>
</clipPath>
</defs>
</svg>
