<svg width="24" height="25" viewBox="0 0 24 25" fill="none" xmlns="http://www.w3.org/2000/svg">
<path d="M23.8634 12.8076C23.8634 11.8183 23.7853 11.0963 23.6162 10.3477H12.6211V14.813H19.075C18.9449 15.9227 18.2422 17.5939 16.6808 18.7168L16.6589 18.8663L20.1353 21.6335L20.3762 21.6582C22.5882 19.5591 23.8634 16.4708 23.8634 12.8076Z" fill="white"/>
<path d="M12.6218 24.5726C15.7836 24.5726 18.438 23.503 20.3769 21.6581L16.6815 18.7168C15.6926 19.4253 14.3653 19.92 12.6218 19.92C9.52496 19.92 6.89657 17.8211 5.95962 14.9199L5.82228 14.9319L2.20743 17.8063L2.16016 17.9414C4.0859 21.8719 8.04154 24.5726 12.6218 24.5726Z" fill="white"/>
<path d="M5.95874 14.9197C5.71151 14.171 5.56844 13.3688 5.56844 12.5399C5.56844 11.7109 5.71151 10.9088 5.94573 10.1601L5.93918 10.0007L2.27903 7.08008L2.15927 7.1386C1.36558 8.76969 0.910156 10.6013 0.910156 12.5399C0.910156 14.4785 1.36558 16.31 2.15927 17.9411L5.95874 14.9197Z" fill="white"/>
<path d="M12.6218 5.16033C14.8208 5.16033 16.3041 6.13629 17.1499 6.95188L20.4549 3.63625C18.4251 1.69769 15.7836 0.507812 12.6218 0.507812C8.04154 0.507812 4.0859 3.20841 2.16016 7.13898L5.94661 10.1605C6.89657 7.25936 9.52496 5.16033 12.6218 5.16033Z" fill="white"/>
</svg>
