<svg width="21" height="21" viewBox="0 0 21 21" fill="none" xmlns="http://www.w3.org/2000/svg">
<path d="M10.5078 0.707031C8.53 0.707031 6.59661 1.29352 4.95211 2.39234C3.30762 3.49115 2.0259 5.05294 1.26902 6.8802C0.512145 8.70746 0.314112 10.7181 0.699964 12.6579C1.08582 14.5977 2.03822 16.3796 3.43675 17.7781C4.83527 19.1766 6.6171 20.129 8.55691 20.5149C10.4967 20.9007 12.5074 20.7027 14.3347 19.9458C16.1619 19.189 17.7237 17.9072 18.8225 16.2627C19.9213 14.6182 20.5078 12.6848 20.5078 10.707C20.5078 9.39381 20.2492 8.09345 19.7466 6.8802C19.2441 5.66694 18.5075 4.56455 17.5789 3.63596C16.6503 2.70738 15.5479 1.97078 14.3347 1.46824C13.1214 0.965689 11.821 0.707031 10.5078 0.707031ZM10.5078 18.707C8.92557 18.707 7.37885 18.2378 6.06325 17.3588C4.74766 16.4797 3.72228 15.2303 3.11678 13.7685C2.51128 12.3067 2.35285 10.6982 2.66154 9.14631C2.97022 7.59446 3.73214 6.169 4.85096 5.05018C5.96978 3.93136 7.39525 3.16943 8.94709 2.86075C10.4989 2.55207 12.1075 2.71049 13.5693 3.316C15.0311 3.9215 16.2805 4.94688 17.1596 6.26247C18.0386 7.57806 18.5078 9.12478 18.5078 10.707C18.5078 12.8288 17.665 14.8636 16.1647 16.3639C14.6644 17.8642 12.6295 18.707 10.5078 18.707Z" fill="white"/>
<path d="M10.7266 4.7071C9.7983 4.7071 8.90807 5.07585 8.25169 5.73222C7.59531 6.3886 7.22656 7.27884 7.22656 8.2071C7.22656 8.47232 7.33192 8.72667 7.51946 8.91421C7.70699 9.10174 7.96135 9.2071 8.22656 9.2071C8.49178 9.2071 8.74613 9.10174 8.93367 8.91421C9.12121 8.72667 9.22656 8.47232 9.22656 8.2071C9.22656 7.91043 9.31454 7.62042 9.47936 7.37374C9.64418 7.12707 9.87845 6.93481 10.1525 6.82128C10.4266 6.70775 10.7282 6.67804 11.0192 6.73592C11.3102 6.7938 11.5774 6.93666 11.7872 7.14644C11.997 7.35622 12.1399 7.62349 12.1977 7.91446C12.2556 8.20543 12.2259 8.50703 12.1124 8.78112C11.9989 9.05521 11.8066 9.28948 11.5599 9.4543C11.3132 9.61913 11.0232 9.7071 10.7266 9.7071C10.4613 9.7071 10.207 9.81246 10.0195 9.99999C9.83192 10.1875 9.72656 10.4419 9.72656 10.7071V12.7071C9.72656 12.9723 9.83192 13.2267 10.0195 13.4142C10.207 13.6017 10.4613 13.7071 10.7266 13.7071C10.9918 13.7071 11.2461 13.6017 11.4337 13.4142C11.6212 13.2267 11.7266 12.9723 11.7266 12.7071V11.5471C12.5347 11.3111 13.2302 10.791 13.6851 10.0825C14.1399 9.37412 14.3233 8.52517 14.2015 7.69216C14.0797 6.85916 13.6609 6.09825 13.0224 5.54969C12.3838 5.00112 11.5684 4.70187 10.7266 4.7071Z" fill="white"/>
<path d="M10.7266 16.707C11.2788 16.707 11.7266 16.2593 11.7266 15.707C11.7266 15.1547 11.2788 14.707 10.7266 14.707C10.1743 14.707 9.72656 15.1547 9.72656 15.707C9.72656 16.2593 10.1743 16.707 10.7266 16.707Z" fill="white"/>
</svg>
