<svg width="17" height="21" viewBox="0 0 17 21" fill="none" xmlns="http://www.w3.org/2000/svg">
<path d="M6.41039 12.0294C6.77993 12.266 7.14572 12.4966 7.50837 12.7332C7.87103 12.9697 8.03826 13.3128 7.99254 13.7497C7.94556 14.1992 7.69815 14.5015 7.28664 14.6375C7.15599 14.6824 7.01757 14.6969 6.88104 14.6799C6.74452 14.6628 6.61318 14.6148 6.4962 14.539C6.08657 14.2853 5.68195 14.0244 5.26857 13.7635C4.9554 14.1348 4.64912 14.539 4.30275 14.9023C3.78372 15.4464 3.24924 15.9741 2.69931 16.4854C2.23017 16.9224 1.61386 16.8764 1.23993 16.4131C0.866003 15.9498 0.926756 15.3163 1.40967 14.8899C2.23902 14.1651 2.99617 13.354 3.66951 12.469C3.71273 12.4118 3.7547 12.3527 3.78602 12.31C3.47974 11.8217 3.16343 11.3552 2.88534 10.8643C2.51475 10.1987 2.23577 9.48148 2.05668 8.7339C1.90448 8.12278 2.19886 7.55107 2.74565 7.39796C3.29245 7.24485 3.8261 7.57079 3.98582 8.18126C4.17954 8.93365 4.48679 9.64866 4.8959 10.2992C4.91657 10.332 4.94287 10.3609 4.9911 10.4227C6.02982 8.50373 6.68653 6.38355 6.92149 4.19053H6.62837C4.76812 4.19053 2.90788 4.19053 1.04764 4.19053C0.307301 4.19053 -0.181871 3.47952 0.0642823 2.77902C0.21711 2.34269 0.590411 2.09036 1.09838 2.08904C2.30221 2.08904 3.50583 2.08904 4.70925 2.08904H5.01553C5.01553 1.68425 4.99987 1.30838 5.01928 0.934472C5.04747 0.400229 5.49343 -0.00456107 6.01768 3.88128e-05C6.26255 -0.00155056 6.49899 0.0937532 6.67986 0.266945C6.86073 0.440137 6.97272 0.67849 6.99352 0.934472C7.01106 1.22032 7.00041 1.50749 7.00229 1.79465C7.00229 1.88271 7.00229 1.97076 7.00229 2.08904H8.42785C9.27216 2.08904 10.119 2.08247 10.9601 2.08904C11.688 2.09693 12.1665 2.75668 11.9623 3.45192C11.9002 3.66554 11.7741 3.85246 11.6027 3.98493C11.4313 4.11739 11.2238 4.18834 11.0109 4.18725C10.4096 4.19448 9.80768 4.18725 9.20576 4.18725H8.93894C8.66958 6.96768 7.80523 9.6484 6.41039 12.0294Z" fill="white"/>
<path d="M10.6958 16.7857C10.4722 17.8371 10.2574 18.8688 10.0357 19.8991C10.0137 20.003 9.99496 20.1074 9.9674 20.21C9.82083 20.758 9.33604 21.0833 8.8237 20.9814C8.28629 20.8737 7.93241 20.3939 8.01885 19.817C8.1009 19.2689 8.23431 18.7281 8.34956 18.1853C8.79677 16.0766 9.23834 13.9666 9.69619 11.8612C10.0163 10.3899 11.1455 9.44097 12.5273 9.44886C13.8933 9.45674 15.0151 10.4234 15.3258 11.8802C15.877 14.4597 16.424 17.0395 16.9668 19.6199C17.0833 20.1738 16.8885 20.643 16.4582 20.8684C16.263 20.9769 16.0382 21.0116 15.8215 20.9667C15.6048 20.9219 15.4094 20.8001 15.2681 20.622C15.1463 20.4538 15.0609 20.2598 15.0176 20.0536C14.7871 19.0265 14.5792 17.9935 14.3512 16.9651C14.3361 16.8961 14.2453 16.7936 14.189 16.7929C13.0308 16.783 11.8752 16.7857 10.6958 16.7857ZM11.1468 14.6651H13.872C13.6841 13.8155 13.52 12.9842 13.3221 12.1615C13.2275 11.7711 12.8617 11.5234 12.4916 11.5326C12.3066 11.536 12.1276 11.6018 11.981 11.7201C11.8344 11.8384 11.7279 12.0031 11.6773 12.1897C11.6103 12.4329 11.5639 12.6819 11.5113 12.929C11.3905 13.5027 11.2708 14.0757 11.1468 14.6651Z" fill="white"/>
</svg>
