<svg width="19" height="20" viewBox="0 0 19 20" fill="none" xmlns="http://www.w3.org/2000/svg">
<path d="M18.0273 13.2069L16.2274 11.397V6.93728C16.2514 5.2812 15.6753 3.67239 14.6056 2.40789C13.536 1.14339 12.0449 0.308613 10.4078 0.0576935C9.45765 -0.0674318 8.49176 0.0115112 7.57455 0.289255C6.65735 0.566999 5.80993 1.03716 5.08882 1.66836C4.36772 2.29956 3.78952 3.07729 3.39281 3.94965C2.99609 4.82202 2.78999 5.76896 2.78824 6.72729V11.397L0.988345 13.2069C0.762265 13.4368 0.608952 13.7281 0.547572 14.0446C0.486193 14.3612 0.51947 14.6887 0.643244 14.9864C0.767018 15.2841 0.975797 15.5387 1.24348 15.7184C1.51116 15.8981 1.82588 15.9949 2.14828 15.9967H5.50807V16.3367C5.55478 17.3519 6.002 18.3071 6.75172 18.9931C7.50145 19.6791 8.49255 20.0399 9.50783 19.9965C10.5231 20.0399 11.5142 19.6791 12.2639 18.9931C13.0137 18.3071 13.4609 17.3519 13.5076 16.3367V15.9967H16.8674C17.1898 15.9949 17.5045 15.8981 17.7722 15.7184C18.0399 15.5387 18.2486 15.2841 18.3724 14.9864C18.4962 14.6887 18.5295 14.3612 18.4681 14.0446C18.4067 13.7281 18.2534 13.4368 18.0273 13.2069ZM11.5077 16.3367C11.4523 16.8177 11.2134 17.2587 10.8408 17.5679C10.4683 17.8771 9.99079 18.0307 9.50783 17.9966C9.02488 18.0307 8.54739 17.8771 8.17484 17.5679C7.80229 17.2587 7.56341 16.8177 7.50795 16.3367V15.9967H11.5077V16.3367ZM3.01822 13.9969L4.19815 12.8169C4.38531 12.6309 4.53379 12.4096 4.63505 12.1659C4.7363 11.9222 4.78833 11.6609 4.78812 11.397V6.72729C4.78866 6.05273 4.93349 5.3861 5.21288 4.77212C5.49228 4.15814 5.89977 3.61103 6.40802 3.16751C6.90941 2.71322 7.50353 2.3733 8.14925 2.1713C8.79498 1.96929 9.4769 1.91002 10.1478 1.99758C11.3042 2.18534 12.3539 2.78454 13.1035 3.68485C13.8532 4.58517 14.2523 5.72599 14.2275 6.89728V11.397C14.226 11.6602 14.2765 11.9211 14.376 12.1648C14.4755 12.4084 14.6222 12.6301 14.8075 12.8169L15.9974 13.9969H3.01822Z" fill="white"/>
</svg>
