<svg width="21" height="23" viewBox="0 0 21 23" fill="none" xmlns="http://www.w3.org/2000/svg">
<path d="M4.45508 1.14844L1.45508 5.14844V19.1484C1.45508 19.6789 1.66579 20.1876 2.04086 20.5627C2.41594 20.9377 2.92465 21.1484 3.45508 21.1484H17.4551C17.9855 21.1484 18.4942 20.9377 18.8693 20.5627C19.2444 20.1876 19.4551 19.6789 19.4551 19.1484V5.14844L16.4551 1.14844H4.45508Z" stroke="white" stroke-width="2" stroke-linecap="round" stroke-linejoin="round"/>
<path d="M1.45508 5.14844H19.4551" stroke="white" stroke-width="2" stroke-linecap="round" stroke-linejoin="round"/>
<path d="M14.4551 9.14844C14.4551 10.2093 14.0337 11.2267 13.2835 11.9769C12.5334 12.727 11.5159 13.1484 10.4551 13.1484C9.39421 13.1484 8.3768 12.727 7.62665 11.9769C6.87651 11.2267 6.45508 10.2093 6.45508 9.14844" stroke="white" stroke-width="2" stroke-linecap="round" stroke-linejoin="round"/>
</svg>
