<svg width="28" height="28" viewBox="0 0 28 28" fill="none" xmlns="http://www.w3.org/2000/svg">
<path d="M26.7722 11.6184C27.1919 10.8034 27.5266 9.94421 27.9011 9.10598C27.9293 9.04125 27.9669 8.9799 28 8.91714V8.58891C27.7533 8.17984 27.5865 8.10577 27.0956 8.21489C24.1934 8.85833 21.6454 10.1938 19.4767 12.2177C18.6531 12.9864 17.9253 13.8574 17.154 14.6824C17.0994 14.7412 17.0483 14.8028 16.9508 14.9139C16.9657 14.7892 16.9671 14.7242 16.9821 14.6626C17.4759 12.6144 17.6322 10.5433 17.373 8.4501C17.1192 6.39539 16.5451 4.39312 15.6718 2.51609C15.3586 1.83986 15.0079 1.17945 14.6458 0.527813C14.5328 0.325113 14.3267 0.17443 14.1631 0H13.8344C13.6707 0.17443 13.4644 0.325113 13.3516 0.527813C12.9895 1.17945 12.6391 1.83986 12.3259 2.51609C11.4523 4.39305 10.8782 6.39534 10.6244 8.4501C10.3661 10.5421 10.5218 12.6147 11.0156 14.6629C11.0303 14.7242 11.0317 14.7892 11.0467 14.9139C10.9492 14.8028 10.898 14.7409 10.8432 14.6824C10.0721 13.8574 9.34519 12.9861 8.52045 12.2177C6.32885 10.1762 3.76248 8.83647 0.82133 8.1985C0.559888 8.14195 0.328689 8.16033 0.145538 8.36501C-0.0497662 8.58354 -0.0263071 8.82893 0.085901 9.08026C0.464356 9.9281 0.800698 10.7949 1.22466 11.6181C2.74187 14.5645 4.87382 16.9392 7.81582 18.5326C7.88761 18.5716 7.95488 18.6194 8.075 18.6951C7.91899 18.6951 7.83702 18.6991 7.75562 18.6951C5.14431 18.5413 2.72463 19.204 0.435244 20.4134C0.195848 20.5395 0.0053486 20.6981 0.00280483 20.9915C0.000261074 21.2969 0.198109 21.4583 0.445702 21.5912C1.54998 22.1848 2.71219 22.6194 3.92641 22.9292C5.31729 23.2843 6.72201 23.4225 8.15047 23.2538C8.52666 23.2094 8.89975 23.1381 9.33077 23.0703C9.244 23.1927 9.18945 23.2721 9.13293 23.3507C8.53401 24.1779 8.22169 25.1061 8.17195 26.1213C8.14369 26.6618 8.51338 26.9459 9.01987 26.7715C10.2426 26.3457 11.3223 25.6794 12.2357 24.7643C12.6493 24.3495 13.0119 23.8839 13.4155 23.4206V23.7123C13.4155 24.8701 13.4155 26.0278 13.4155 27.1854C13.4155 27.716 13.6303 28.0078 14.0116 27.9998C14.3872 27.9922 14.5896 27.7123 14.5899 27.1955C14.5899 26.0289 14.5899 24.8622 14.5899 23.6953V23.4194H14.6464L14.7877 23.6173C15.84 25.1012 17.2388 26.136 18.9462 26.7568C19.49 26.9547 19.8591 26.6779 19.8275 26.1046C19.7709 25.0789 19.4538 24.1437 18.841 23.3137C18.7868 23.2402 18.737 23.1639 18.6831 23.0861C19.3049 23.1639 19.8877 23.2758 20.4753 23.3041C22.9693 23.4234 25.2881 22.7794 27.4765 21.6206C27.6744 21.5157 27.8262 21.3232 27.9994 21.1713V20.8431C27.8378 20.6919 27.6996 20.4965 27.5107 20.3962C25.2395 19.1884 22.8331 18.5419 20.2415 18.6943C20.1601 18.6991 20.0779 18.6943 19.9224 18.6943C20.0417 18.6191 20.1084 18.5713 20.1799 18.5326C23.1228 16.9392 25.2544 14.5645 26.7722 11.6184ZM1.57739 9.58885C2.55928 9.87155 3.47815 10.2577 4.37044 10.7126C6.6994 11.9 8.55549 13.6454 10.1403 15.6854C10.9992 16.7908 11.7603 17.9722 12.5645 19.1203C12.6136 19.1904 12.6509 19.269 12.7086 19.3699C7.51255 17.776 3.62427 14.748 1.57739 9.58885ZM7.25139 22.1509C5.38964 22.2126 3.6336 21.7551 1.8996 20.9972C2.88893 20.5479 3.92897 20.2201 4.99705 20.0207C6.57645 19.7267 8.15414 19.8129 9.72732 20.0524C10.6343 20.1906 11.5337 20.3786 12.4387 20.5833C10.811 21.4656 9.11229 22.0893 7.25139 22.1509ZM9.46418 25.3138C9.70386 24.4434 10.1278 23.7612 10.8062 23.2563C11.4622 22.7675 12.1374 22.3047 12.8047 21.8312C12.8304 21.8131 12.8612 21.8029 12.9494 21.7574C12.1894 23.3677 11.0433 24.5053 9.46418 25.3138ZM14.0017 19.1633C12.5922 16.5166 11.7228 13.7243 11.6744 10.7197C11.6236 7.54403 12.5379 4.60529 13.9952 1.73808C15.2642 4.18576 16.0921 6.69874 16.2846 9.39237C16.5341 12.8739 15.6003 16.0928 14.0017 19.1633ZM15.1198 21.7871C15.2201 21.8535 15.323 21.9166 15.4205 21.9872C16.0686 22.4554 16.7303 22.9066 17.3583 23.4008C17.9609 23.8746 18.3145 24.5245 18.5386 25.3187C16.9592 24.5132 15.8145 23.3753 15.1198 21.7871ZM26.0783 21.0082C24.376 21.7653 22.6256 22.2066 20.7726 22.1512C18.9072 22.0947 17.204 21.4589 15.5039 20.5963C19.1042 19.7244 22.6126 19.338 26.0783 21.0082ZM15.2696 19.375C15.5616 18.9148 15.8202 18.4882 16.0972 18.0746C17.3069 16.2669 18.6432 14.5622 20.2463 13.0831C21.9942 11.4703 24.0139 10.3264 26.2858 9.62588C26.3265 9.61344 26.3683 9.60468 26.4181 9.59196C24.3782 14.742 20.4931 17.7732 15.2696 19.375Z" fill="#ED1C24"/>
<path d="M26.4183 9.59196C24.3782 14.742 20.4931 17.7732 15.2696 19.3736C15.5616 18.9134 15.8202 18.4868 16.0972 18.0732C17.3069 16.2669 18.6432 14.5622 20.2463 13.0831C21.9942 11.4703 24.0139 10.3264 26.2858 9.62588C26.3268 9.61344 26.3686 9.60468 26.4183 9.59196Z" fill="#ED1C24"/>
<path d="M26.0783 21.0082C24.376 21.7653 22.6256 22.2066 20.7726 22.1512C18.9072 22.0947 17.204 21.4589 15.5039 20.5963C19.1042 19.7244 22.6126 19.338 26.0783 21.0082Z" fill="#ED1C24"/>
<path d="M18.5386 25.3184C16.9592 24.5132 15.8145 23.3753 15.1186 21.7871C15.219 21.8535 15.3219 21.9166 15.4194 21.9872C16.0675 22.4554 16.7291 22.9066 17.3572 23.4008C17.9609 23.8743 18.3145 24.5242 18.5386 25.3184Z" fill="#ED1C24"/>
<path d="M12.9485 21.7574C12.1894 23.3688 11.0433 24.5053 9.46418 25.3138C9.70386 24.4434 10.1278 23.7612 10.8062 23.2563C11.4622 22.7675 12.1374 22.3047 12.8047 21.8312C12.8296 21.8131 12.8606 21.8018 12.9485 21.7574Z" fill="#ED1C24"/>
<path d="M12.4387 20.5845C10.8109 21.4657 9.11229 22.0893 7.25139 22.1509C5.39049 22.2126 3.6336 21.7551 1.8996 20.9972C2.88893 20.5479 3.92897 20.2201 4.99705 20.0207C6.57645 19.7267 8.15414 19.8129 9.72732 20.0524C10.6343 20.1918 11.5337 20.3798 12.4387 20.5845Z" fill="#ED1C24"/>
<path d="M12.7086 19.3705C7.51253 17.776 3.62427 14.748 1.57739 9.58885C2.55928 9.87155 3.47815 10.2577 4.37044 10.7126C6.6994 11.9 8.55549 13.6454 10.1403 15.6854C10.9992 16.7908 11.7603 17.9722 12.5645 19.1203C12.6151 19.1899 12.6509 19.2684 12.7086 19.3705Z" fill="#ED1C24"/>
<path d="M14.0017 19.1633C12.5922 16.5166 11.7228 13.7243 11.6744 10.7197C11.6236 7.54403 12.5379 4.60529 13.9952 1.73808C15.2642 4.18576 16.0921 6.69874 16.2846 9.39237C16.5341 12.8739 15.6003 16.0928 14.0017 19.1633Z" fill="#ED1C24"/>
</svg>
