<svg width="14" height="14" viewBox="0 0 14 14" fill="none" xmlns="http://www.w3.org/2000/svg">
<path d="M6.15245 10.7665C6.75838 10.7665 7.35837 10.6471 7.91817 10.4153C8.47797 10.1834 8.98662 9.84352 9.41508 9.41507C9.84353 8.98661 10.1834 8.47797 10.4153 7.91816C10.6472 7.35836 10.7665 6.75837 10.7665 6.15245C10.7665 5.54652 10.6472 4.94653 10.4153 4.38673C10.1834 3.82693 9.84353 3.31828 9.41508 2.88982C8.98662 2.46137 8.47797 2.1215 7.91817 1.88962C7.35837 1.65775 6.75838 1.5384 6.15245 1.5384C4.92873 1.5384 3.75513 2.02452 2.88983 2.88982C2.02452 3.75512 1.5384 4.92872 1.5384 6.15245C1.5384 7.37617 2.02452 8.54977 2.88983 9.41507C3.75513 10.2804 4.92873 10.7665 6.15245 10.7665ZM11.0126 9.92519L13.7656 12.6782C13.839 12.7492 13.8975 12.8341 13.9378 12.928C13.978 13.0218 13.9992 13.1228 14 13.2249C14.0008 13.327 13.9813 13.4282 13.9425 13.5227C13.9038 13.6172 13.8466 13.703 13.7744 13.7751C13.7021 13.8473 13.6162 13.9043 13.5217 13.9429C13.4272 13.9815 13.3259 14.0009 13.2238 14C13.1217 13.999 13.0208 13.9777 12.927 13.9374C12.8332 13.897 12.7484 13.8383 12.6775 13.7648L9.92443 11.0118C8.68822 11.9714 7.13278 12.4238 5.57474 12.277C4.0167 12.1301 2.57318 11.395 1.53806 10.2213C0.502931 9.04761 -0.0459959 7.52354 0.00302145 5.95937C0.0520388 4.39519 0.695316 2.90848 1.8019 1.8019C2.90849 0.695315 4.39519 0.0520388 5.95937 0.00302144C7.52355 -0.0459959 9.04762 0.502931 10.2213 1.53806C11.395 2.57318 12.1301 4.01669 12.277 5.57473C12.4238 7.13277 11.9714 8.68822 11.0118 9.92443L11.0126 9.92519Z" fill="#181B19"/>
</svg>
