<svg width="21" height="23" viewBox="0 0 21 23" fill="none" xmlns="http://www.w3.org/2000/svg">
<path d="M4.50781 1.14844L1.50781 5.14844V19.1484C1.50781 19.6789 1.71853 20.1876 2.0936 20.5627C2.46867 20.9377 2.97738 21.1484 3.50781 21.1484H17.5078C18.0382 21.1484 18.547 20.9377 18.922 20.5627C19.2971 20.1876 19.5078 19.6789 19.5078 19.1484V5.14844L16.5078 1.14844H4.50781Z" stroke="white" stroke-width="2" stroke-linecap="round" stroke-linejoin="round"/>
<path d="M1.50781 5.14844H19.5078" stroke="white" stroke-width="2" stroke-linecap="round" stroke-linejoin="round"/>
<path d="M14.5078 9.14844C14.5078 10.2093 14.0864 11.2267 13.3362 11.9769C12.5861 12.727 11.5687 13.1484 10.5078 13.1484C9.44695 13.1484 8.42953 12.727 7.67939 11.9769C6.92924 11.2267 6.50781 10.2093 6.50781 9.14844" stroke="white" stroke-width="2" stroke-linecap="round" stroke-linejoin="round"/>
</svg>
